<mxfile host="app.diagrams.net" modified="2021-10-19T19:32:05.863Z" agent="5.0 (Windows NT 10.0; Win64; x64) AppleWebKit/537.36 (KHTML, like Gecko) Chrome/94.0.4606.81 Safari/537.36" etag="5SZDx9ijmA8Wr5Svk34g" version="15.5.2" type="github">
  <diagram id="HM7j85Rdiz1Y5akISU01" name="Page-1">
    <mxGraphModel dx="1878" dy="716" grid="1" gridSize="10" guides="1" tooltips="1" connect="1" arrows="1" fold="1" page="1" pageScale="1" pageWidth="850" pageHeight="1400" math="0" shadow="0">
      <root>
        <mxCell id="0" />
        <mxCell id="1" parent="0" />
        <mxCell id="0vk6YGWlutFv1mRmRZfW-3" value="" style="rounded=0;whiteSpace=wrap;html=1;strokeWidth=0;" vertex="1" parent="1">
          <mxGeometry x="470" y="550" width="150" height="150" as="geometry" />
        </mxCell>
        <mxCell id="L8C56Jj7wOCbWfdWzDk6-8" value="" style="group" parent="1" vertex="1" connectable="0">
          <mxGeometry x="20" y="100" width="830" height="210" as="geometry" />
        </mxCell>
        <mxCell id="Mi_zSetF6_ZIroNsKMk8-9" value="" style="rounded=0;whiteSpace=wrap;html=1;strokeWidth=0;" parent="L8C56Jj7wOCbWfdWzDk6-8" vertex="1">
          <mxGeometry x="444.08" y="50" width="135.92" height="150" as="geometry" />
        </mxCell>
        <mxCell id="Mi_zSetF6_ZIroNsKMk8-11" value="Azure Blob Storage" style="verticalLabelPosition=bottom;html=1;verticalAlign=top;align=center;strokeColor=none;fillColor=#00BEF2;shape=mxgraph.azure.storage_blob;" parent="L8C56Jj7wOCbWfdWzDk6-8" vertex="1">
          <mxGeometry x="485.60267515923573" y="87.5" width="52.86624203821657" height="45" as="geometry" />
        </mxCell>
        <mxCell id="Mi_zSetF6_ZIroNsKMk8-23" value="" style="rounded=0;whiteSpace=wrap;html=1;strokeWidth=0;" parent="L8C56Jj7wOCbWfdWzDk6-8" vertex="1">
          <mxGeometry x="680.0010191082803" y="50" width="126.87898089171975" height="150" as="geometry" />
        </mxCell>
        <mxCell id="Mi_zSetF6_ZIroNsKMk8-24" value="Model &amp;amp; Serve" style="edgeStyle=orthogonalEdgeStyle;rounded=0;orthogonalLoop=1;jettySize=auto;html=1;startSize=2;endSize=3;strokeWidth=0.5;exitX=1;exitY=0.5;exitDx=0;exitDy=0;" parent="L8C56Jj7wOCbWfdWzDk6-8" source="Mi_zSetF6_ZIroNsKMk8-9" target="Mi_zSetF6_ZIroNsKMk8-23" edge="1">
          <mxGeometry relative="1" as="geometry">
            <mxPoint x="644.968152866242" y="20" as="sourcePoint" />
            <Array as="points" />
          </mxGeometry>
        </mxCell>
        <mxCell id="Mi_zSetF6_ZIroNsKMk8-25" value="Platform Perf Site" style="verticalLabelPosition=bottom;html=1;verticalAlign=top;align=center;strokeColor=none;fillColor=#00BEF2;shape=mxgraph.azure.website_generic;pointerEvents=1;" parent="L8C56Jj7wOCbWfdWzDk6-8" vertex="1">
          <mxGeometry x="717.007388535032" y="83.75" width="52.86624203821657" height="42.5" as="geometry" />
        </mxCell>
        <mxCell id="L8C56Jj7wOCbWfdWzDk6-12" value="" style="group" parent="L8C56Jj7wOCbWfdWzDk6-8" vertex="1" connectable="0">
          <mxGeometry x="-3.1719745222929943" y="220" width="169.171974522293" height="200" as="geometry" />
        </mxCell>
        <mxCell id="Mi_zSetF6_ZIroNsKMk8-2" value="" style="rounded=0;whiteSpace=wrap;html=1;strokeWidth=0;" parent="L8C56Jj7wOCbWfdWzDk6-12" vertex="1">
          <mxGeometry width="169.171974522293" height="200" as="geometry" />
        </mxCell>
        <mxCell id="L8C56Jj7wOCbWfdWzDk6-1" value="Cosmos Structured Stream" style="aspect=fixed;html=1;points=[];align=center;image;fontSize=12;image=img/lib/azure2/databases/Azure_Cosmos_DB.svg;" parent="L8C56Jj7wOCbWfdWzDk6-12" vertex="1">
          <mxGeometry x="71.90866242038217" y="97.5" width="80" height="80" as="geometry" />
        </mxCell>
        <mxCell id="L8C56Jj7wOCbWfdWzDk6-2" value="Git" style="shape=image;html=1;verticalAlign=top;verticalLabelPosition=bottom;labelBackgroundColor=#ffffff;imageAspect=0;aspect=fixed;image=https://cdn3.iconfinder.com/data/icons/social-media-2169/24/social_media_social_media_logo_git-128.png" parent="L8C56Jj7wOCbWfdWzDk6-12" vertex="1">
          <mxGeometry x="11.36624203821656" y="110" width="36" height="36" as="geometry" />
        </mxCell>
        <mxCell id="L8C56Jj7wOCbWfdWzDk6-10" value="Data Mart" style="aspect=fixed;html=1;points=[];align=center;image;fontSize=12;image=img/lib/azure2/databases/SQL_Data_Warehouses.svg;" parent="L8C56Jj7wOCbWfdWzDk6-12" vertex="1">
          <mxGeometry x="10.573248407643312" y="30" width="49.23" height="50" as="geometry" />
        </mxCell>
        <mxCell id="L8C56Jj7wOCbWfdWzDk6-11" value="Kusto" style="aspect=fixed;html=1;points=[];align=center;image;fontSize=12;image=img/lib/azure2/databases/Azure_Data_Explorer_Clusters.svg;" parent="L8C56Jj7wOCbWfdWzDk6-12" vertex="1">
          <mxGeometry x="95.11694267515924" y="30" width="36.09" height="36.09" as="geometry" />
        </mxCell>
        <mxCell id="Mi_zSetF6_ZIroNsKMk8-6" value="" style="rounded=0;whiteSpace=wrap;html=1;strokeWidth=0;" parent="1" vertex="1">
          <mxGeometry x="250" y="320" width="150" height="200" as="geometry" />
        </mxCell>
        <mxCell id="Mi_zSetF6_ZIroNsKMk8-8" value="Azure Data Factory" style="aspect=fixed;html=1;points=[];align=center;image;fontSize=12;image=img/lib/azure2/databases/Data_Factory.svg;strokeWidth=0;" parent="1" vertex="1">
          <mxGeometry x="280" y="370" width="90" height="90" as="geometry" />
        </mxCell>
        <mxCell id="Mi_zSetF6_ZIroNsKMk8-10" value="Store" style="edgeStyle=orthogonalEdgeStyle;rounded=0;orthogonalLoop=1;jettySize=auto;html=1;exitX=1;exitY=0.5;exitDx=0;exitDy=0;entryX=0;entryY=0.5;entryDx=0;entryDy=0;startSize=2;endSize=3;strokeWidth=0.5;" parent="1" source="Mi_zSetF6_ZIroNsKMk8-6" target="Mi_zSetF6_ZIroNsKMk8-9" edge="1">
          <mxGeometry relative="1" as="geometry" />
        </mxCell>
        <mxCell id="Mi_zSetF6_ZIroNsKMk8-7" value="" style="edgeStyle=orthogonalEdgeStyle;rounded=0;orthogonalLoop=1;jettySize=auto;html=1;entryX=0;entryY=0.5;entryDx=0;entryDy=0;endSize=3;startSize=2;strokeWidth=0.5;exitX=1;exitY=0.5;exitDx=0;exitDy=0;" parent="1" source="Mi_zSetF6_ZIroNsKMk8-2" target="Mi_zSetF6_ZIroNsKMk8-6" edge="1">
          <mxGeometry relative="1" as="geometry">
            <mxPoint as="offset" />
            <Array as="points" />
            <mxPoint x="210" y="200" as="sourcePoint" />
          </mxGeometry>
        </mxCell>
        <mxCell id="0vk6YGWlutFv1mRmRZfW-1" value="Daily Cosmos Stream &lt;br&gt;(Filtered)" style="aspect=fixed;html=1;points=[];align=center;image;fontSize=12;image=img/lib/azure2/databases/Azure_Cosmos_DB.svg;" vertex="1" parent="1">
          <mxGeometry x="513" y="593" width="64" height="64" as="geometry" />
        </mxCell>
        <mxCell id="0vk6YGWlutFv1mRmRZfW-4" value="ETL/Store" style="edgeStyle=orthogonalEdgeStyle;rounded=0;orthogonalLoop=1;jettySize=auto;html=1;exitX=1.013;exitY=0.831;exitDx=0;exitDy=0;startSize=2;endSize=3;strokeWidth=0.5;exitPerimeter=0;" edge="1" parent="1" source="Mi_zSetF6_ZIroNsKMk8-6">
          <mxGeometry relative="1" as="geometry">
            <mxPoint x="410" y="430" as="sourcePoint" />
            <mxPoint x="470" y="620" as="targetPoint" />
            <Array as="points">
              <mxPoint x="430" y="486" />
              <mxPoint x="430" y="620" />
            </Array>
          </mxGeometry>
        </mxCell>
        <mxCell id="0vk6YGWlutFv1mRmRZfW-12" value="2" style="edgeLabel;html=1;align=center;verticalAlign=middle;resizable=0;points=[];" vertex="1" connectable="0" parent="0vk6YGWlutFv1mRmRZfW-4">
          <mxGeometry x="-0.7881" y="5" relative="1" as="geometry">
            <mxPoint y="-3" as="offset" />
          </mxGeometry>
        </mxCell>
        <mxCell id="0vk6YGWlutFv1mRmRZfW-5" value="ETL" style="edgeStyle=orthogonalEdgeStyle;rounded=0;orthogonalLoop=1;jettySize=auto;html=1;startSize=2;endSize=3;strokeWidth=0.5;exitX=0.25;exitY=0;exitDx=0;exitDy=0;" edge="1" parent="1" source="0vk6YGWlutFv1mRmRZfW-3">
          <mxGeometry relative="1" as="geometry">
            <mxPoint x="400" y="440" as="targetPoint" />
            <mxPoint x="300" y="320" as="sourcePoint" />
            <Array as="points">
              <mxPoint x="508" y="440" />
              <mxPoint x="400" y="440" />
            </Array>
          </mxGeometry>
        </mxCell>
        <mxCell id="0vk6YGWlutFv1mRmRZfW-7" value="" style="rounded=0;whiteSpace=wrap;html=1;strokeWidth=0;" vertex="1" parent="1">
          <mxGeometry x="675" y="443" width="150" height="150" as="geometry" />
        </mxCell>
        <mxCell id="0vk6YGWlutFv1mRmRZfW-8" value="Synapse &lt;br&gt;(Ad-hoc queries)" style="aspect=fixed;html=1;points=[];align=center;image;fontSize=12;image=img/lib/azure2/analytics/Azure_Synapse_Analytics.svg;" vertex="1" parent="1">
          <mxGeometry x="720" y="470" width="60" height="69" as="geometry" />
        </mxCell>
        <mxCell id="0vk6YGWlutFv1mRmRZfW-9" value="" style="edgeStyle=orthogonalEdgeStyle;rounded=0;orthogonalLoop=1;jettySize=auto;html=1;endSize=3;startSize=2;strokeWidth=0.5;exitX=1;exitY=0.5;exitDx=0;exitDy=0;" edge="1" parent="1" source="0vk6YGWlutFv1mRmRZfW-3" target="0vk6YGWlutFv1mRmRZfW-7">
          <mxGeometry relative="1" as="geometry">
            <mxPoint as="offset" />
            <mxPoint x="260" y="430" as="targetPoint" />
            <Array as="points">
              <mxPoint x="725" y="625" />
            </Array>
            <mxPoint x="207" y="430" as="sourcePoint" />
          </mxGeometry>
        </mxCell>
        <mxCell id="0vk6YGWlutFv1mRmRZfW-11" value="1" style="text;html=1;align=center;verticalAlign=middle;resizable=0;points=[];autosize=1;strokeColor=none;fillColor=none;" vertex="1" parent="1">
          <mxGeometry x="200" y="400" width="20" height="20" as="geometry" />
        </mxCell>
        <mxCell id="0vk6YGWlutFv1mRmRZfW-13" value="3" style="text;html=1;align=center;verticalAlign=middle;resizable=0;points=[];autosize=1;strokeColor=none;fillColor=none;" vertex="1" parent="1">
          <mxGeometry x="510" y="520" width="20" height="20" as="geometry" />
        </mxCell>
        <mxCell id="0vk6YGWlutFv1mRmRZfW-14" value="4" style="text;html=1;align=center;verticalAlign=middle;resizable=0;points=[];autosize=1;strokeColor=none;fillColor=none;" vertex="1" parent="1">
          <mxGeometry x="440" y="200" width="20" height="20" as="geometry" />
        </mxCell>
        <mxCell id="0vk6YGWlutFv1mRmRZfW-15" value="5" style="text;html=1;align=center;verticalAlign=middle;resizable=0;points=[];autosize=1;strokeColor=none;fillColor=none;" vertex="1" parent="1">
          <mxGeometry x="660" y="180" width="20" height="20" as="geometry" />
        </mxCell>
        <mxCell id="0vk6YGWlutFv1mRmRZfW-16" value="4" style="text;html=1;align=center;verticalAlign=middle;resizable=0;points=[];autosize=1;strokeColor=none;fillColor=none;" vertex="1" parent="1">
          <mxGeometry x="670" y="600" width="20" height="20" as="geometry" />
        </mxCell>
      </root>
    </mxGraphModel>
  </diagram>
</mxfile>
